<svg width="32" height="32" viewBox="0 0 32 32" fill="none" xmlns="http://www.w3.org/2000/svg">
<circle cx="16" cy="16" r="15" fill="white"/>
<path d="M32 16C32 24.8366 24.8366 32 16 32C7.16344 32 0 24.8366 0 16C0 7.16344 7.16344 0 16 0C24.8366 0 32 7.16344 32 16ZM2.56286 16C2.56286 23.4211 8.57887 29.4371 16 29.4371C23.4211 29.4371 29.4371 23.4211 29.4371 16C29.4371 8.57887 23.4211 2.56286 16 2.56286C8.57887 2.56286 2.56286 8.57887 2.56286 16Z" fill="#14142B"/>
<path d="M10.3534 16.2255C10.3534 15.6072 9.85215 15.106 9.23383 15.106C8.61551 15.106 8.11426 15.6072 8.11426 16.2255C8.11426 18.3173 8.94521 20.3234 10.4243 21.8025C11.9034 23.2816 13.9095 24.1126 16.0013 24.1126C18.0931 24.1126 20.0992 23.2816 21.5783 21.8025C23.0574 20.3234 23.8884 18.3173 23.8884 16.2255C23.8884 15.6072 23.3871 15.106 22.7688 15.106C22.1505 15.106 21.6492 15.6072 21.6492 16.2255C21.6492 17.7235 21.0542 19.16 19.995 20.2192C18.9358 21.2784 17.4992 21.8735 16.0013 21.8735C14.5034 21.8735 13.0668 21.2784 12.0076 20.2192C10.9484 19.16 10.3534 17.7235 10.3534 16.2255Z" fill="#14142B"/>
</svg>
