<svg width="40" height="40" viewBox="0 0 40 40" fill="none" xmlns="http://www.w3.org/2000/svg">
<rect width="40" height="40" fill="white"/>
<rect width="40" height="40" fill="#FF0000"/>
<path d="M20.5332 28.4811L15.5973 28.3888C13.9991 28.3567 12.397 28.4208 10.8301 28.0878C8.44662 27.5902 8.27777 25.1504 8.10108 23.1039C7.85762 20.2267 7.95187 17.2973 8.41131 14.4441C8.67068 12.8432 9.69141 11.888 11.2699 11.784C16.5986 11.4067 21.9627 11.4514 27.2795 11.6275C27.841 11.6436 28.4064 11.7318 28.9601 11.8322C31.6933 12.3217 31.7599 15.0866 31.9371 17.4141C32.1138 19.7656 32.0392 22.1291 31.7015 24.4646C31.4305 26.3983 30.9121 28.0199 28.7245 28.1765C25.9835 28.3812 23.3054 28.546 20.5567 28.4935C20.5569 28.4811 20.5411 28.4811 20.5332 28.4811ZM17.6314 23.5854C19.6969 22.3735 21.7231 21.1817 23.7768 19.9779C21.7074 18.7659 19.6851 17.5742 17.6314 16.3704V23.5854Z" fill="white"/>
</svg>
