<svg width="40" height="40" viewBox="0 0 40 40" fill="none" xmlns="http://www.w3.org/2000/svg">
<rect width="40" height="40" fill="white"/>
<rect width="40" height="40" fill="#1EA1F2"/>
<path d="M23.915 10.5608V10.5566H25.0065L25.4053 10.6363C25.6712 10.688 25.9126 10.7558 26.1295 10.8396C26.3464 10.9235 26.5563 11.0213 26.7592 11.1331C26.9621 11.2449 27.1461 11.3588 27.3112 11.4747C27.475 11.5893 27.6219 11.7109 27.752 11.8395C27.8808 11.9694 28.0816 12.003 28.3544 11.9401C28.6273 11.8772 28.9212 11.7898 29.236 11.6781C29.5509 11.5663 29.8622 11.4405 30.1701 11.3008C30.4779 11.161 30.6655 11.0723 30.7326 11.0346C30.7984 10.9954 30.8334 10.9745 30.8376 10.9717L30.8418 10.9654L30.8628 10.9549L30.8837 10.9444L30.9047 10.9339L30.9257 10.9235L30.9299 10.9172L30.9362 10.913L30.9425 10.9088L30.9467 10.9025L30.9677 10.8962L30.9887 10.892L30.9845 10.9235L30.9782 10.9549L30.9677 10.9863L30.9572 11.0178L30.9467 11.0387L30.9362 11.0597L30.9257 11.0911C30.9187 11.1121 30.9117 11.1401 30.9047 11.175C30.8977 11.2099 30.8313 11.3497 30.7053 11.5942C30.5794 11.8388 30.422 12.0868 30.2331 12.3383C30.0441 12.5899 29.8748 12.7799 29.7251 12.9085C29.574 13.0384 29.4739 13.1293 29.4249 13.181C29.376 13.2341 29.3165 13.283 29.2465 13.3277L29.1416 13.3969L29.1206 13.4074L29.0996 13.4178L29.0954 13.4241L29.0891 13.4283L29.0828 13.4325L29.0786 13.4388L29.0576 13.4493L29.0366 13.4598L29.0324 13.466L29.0261 13.4702L29.0198 13.4744L29.0156 13.4807L29.0115 13.487L29.0051 13.4912L28.9988 13.4954L28.9946 13.5017H29.0996L29.6873 13.3759C30.0791 13.2921 30.4535 13.1908 30.8103 13.072L31.377 12.8833L31.44 12.8624L31.4715 12.8519L31.4925 12.8414L31.5135 12.8309L31.5344 12.8204L31.5554 12.81L31.5974 12.8037L31.6394 12.7995V12.8414L31.6289 12.8456L31.6184 12.8519L31.6142 12.8582L31.6079 12.8624L31.6016 12.8666L31.5974 12.8728L31.5932 12.8791L31.5869 12.8833L31.5806 12.8875L31.5764 12.8938L31.5722 12.9001L31.5659 12.9043L31.5554 12.9252L31.5449 12.9462L31.5386 12.9504C31.5358 12.9546 31.447 13.0734 31.2721 13.3067C31.0972 13.5415 31.0027 13.6603 30.9887 13.6631C30.9747 13.6673 30.9551 13.6882 30.9299 13.726C30.9061 13.7651 30.7578 13.9209 30.4849 14.1934C30.2121 14.4659 29.9448 14.7083 29.6831 14.9207C29.4201 15.1346 29.2871 15.3973 29.2843 15.7089C29.2801 16.0191 29.264 16.3699 29.236 16.7611C29.208 17.1524 29.1556 17.5751 29.0786 18.0293C29.0016 18.4834 28.8827 18.997 28.7218 19.5699C28.5609 20.1429 28.3649 20.7018 28.134 21.2468C27.9031 21.7918 27.6618 22.2809 27.4099 22.7141C27.158 23.1473 26.9271 23.5141 26.7172 23.8146C26.5073 24.115 26.2939 24.398 26.077 24.6635C25.8601 24.929 25.5859 25.228 25.2542 25.5606C24.9212 25.8918 24.7393 26.0735 24.7085 26.1056C24.6763 26.1364 24.5392 26.251 24.297 26.4494C24.0564 26.6492 23.7975 26.849 23.5204 27.0489C23.2447 27.2473 22.9915 27.4129 22.7606 27.5456C22.5297 27.6784 22.2512 27.83 21.9252 28.0005C21.6005 28.1724 21.2493 28.3317 20.8715 28.4784C20.4936 28.6251 20.0948 28.7614 19.675 28.8872C19.2552 29.0129 18.8494 29.1107 18.4576 29.1806C18.0658 29.2505 17.6215 29.3099 17.1247 29.3588L16.3796 29.4321V29.4426H15.0152V29.4321L14.8368 29.4217C14.7179 29.4147 14.6199 29.4077 14.5429 29.4007C14.466 29.3937 14.1756 29.3553 13.6718 29.2854C13.1681 29.2155 12.7728 29.1457 12.4859 29.0758C12.199 29.0059 11.7722 28.8732 11.2055 28.6775C10.6388 28.4819 10.1539 28.2842 9.75088 28.0843C9.34927 27.8859 9.09739 27.7601 8.99523 27.707C8.89448 27.6553 8.78113 27.5911 8.65519 27.5142L8.46628 27.3989L8.4621 27.3926L8.45578 27.3884L8.44949 27.3842L8.44529 27.3779L8.4243 27.3675L8.40331 27.357L8.39913 27.3507L8.39281 27.3465L8.38652 27.3423L8.38232 27.336L8.37814 27.3297L8.37182 27.3255H8.36133V27.2836L8.38232 27.2878L8.40331 27.2941L8.49776 27.3046C8.56073 27.3116 8.73216 27.322 9.01202 27.336C9.29191 27.35 9.58925 27.35 9.9041 27.336C10.219 27.322 10.5408 27.2906 10.8696 27.2417C11.1985 27.1928 11.5868 27.109 12.0346 26.9902C12.4824 26.8714 12.8938 26.7302 13.2688 26.5668C13.6425 26.4019 13.9083 26.2789 14.0665 26.1978C14.2232 26.1182 14.4625 25.9701 14.7843 25.7535L15.2671 25.4286L15.2713 25.4223L15.2776 25.4181L15.2839 25.4139L15.2881 25.4076L15.2923 25.4013L15.2986 25.3971L15.3049 25.3929L15.3091 25.3866L15.3301 25.3804L15.351 25.3762L15.3552 25.3552L15.3615 25.3342L15.3679 25.33L15.372 25.3238L15.2041 25.3133C15.0922 25.3063 14.9837 25.2993 14.8788 25.2923C14.7738 25.2853 14.6094 25.2539 14.3855 25.198C14.1616 25.1421 13.9202 25.0582 13.6613 24.9465C13.4025 24.8347 13.1506 24.7019 12.9057 24.5482C12.6608 24.3945 12.4838 24.2666 12.3746 24.1646C12.2669 24.064 12.127 23.9215 11.9548 23.737C11.7841 23.5512 11.6358 23.3604 11.5098 23.1648C11.3839 22.9691 11.2636 22.7434 11.1488 22.4877L10.9746 22.1062L10.9641 22.0748L10.9536 22.0433L10.9473 22.0224L10.9431 22.0014L10.9746 22.0056L11.0061 22.0119L11.237 22.0433C11.3909 22.0643 11.6323 22.0713 11.9611 22.0643C12.29 22.0573 12.5174 22.0433 12.6433 22.0224C12.7693 22.0014 12.8462 21.9874 12.8742 21.9805L12.9162 21.97L12.9687 21.9595L13.0211 21.949L13.0253 21.9427L13.0316 21.9385L13.038 21.9343L13.0421 21.9281L13.0001 21.9176L12.9582 21.9071L12.9162 21.8966L12.8742 21.8861L12.8322 21.8757C12.8042 21.8687 12.7553 21.8547 12.6853 21.8337C12.6153 21.8128 12.4264 21.7359 12.1186 21.6032C11.8107 21.4704 11.5658 21.3411 11.3839 21.2154C11.2015 21.0892 11.0276 20.9513 10.8634 20.8024C10.6996 20.6515 10.5198 20.4573 10.3239 20.2197C10.128 19.9822 9.95309 19.7062 9.79915 19.3918C9.64523 19.0773 9.52979 18.7769 9.45282 18.4904C9.37615 18.2056 9.32558 17.9145 9.30171 17.6205L9.2639 17.1804L9.28489 17.1846L9.30588 17.1908L9.32687 17.2013L9.34786 17.2118L9.36885 17.2223L9.38985 17.2328L9.71519 17.3795C9.9321 17.4773 10.2015 17.5612 10.5233 17.631C10.8452 17.7009 11.0376 17.7393 11.1005 17.7463L11.195 17.7568H11.3839L11.3797 17.7505L11.3734 17.7463L11.3671 17.7421L11.3629 17.7358L11.3587 17.7295L11.3524 17.7253L11.3461 17.7212L11.3419 17.7149L11.3209 17.7044L11.2999 17.6939L11.2958 17.6876L11.2895 17.6834L11.2832 17.6792L11.279 17.6729L11.258 17.6625L11.237 17.652L11.2328 17.6457C11.2286 17.6429 11.1684 17.5982 11.0523 17.5115C10.9375 17.4235 10.8172 17.3096 10.6912 17.1699C10.5653 17.0301 10.4394 16.8834 10.3134 16.7297C10.1872 16.5756 10.0749 16.4108 9.97757 16.2371C9.87963 16.0624 9.77606 15.8402 9.66691 15.5705C9.55917 15.3022 9.47731 15.0318 9.42133 14.7593C9.36537 14.4869 9.33389 14.2179 9.32687 13.9523C9.31988 13.6868 9.32687 13.4598 9.34786 13.2711C9.36885 13.0825 9.41084 12.8693 9.47381 12.6318C9.53678 12.3942 9.62775 12.1427 9.74668 11.8772L9.92509 11.4789L9.93559 11.4475L9.94608 11.416L9.9524 11.4119L9.95658 11.4056L9.96078 11.3993L9.96707 11.3951L9.97339 11.3993L9.97757 11.4056L9.98177 11.4119L9.98806 11.416L9.99438 11.4202L9.99856 11.4265L10.0028 11.4328L10.0091 11.437L10.0195 11.458L10.03 11.4789L10.0364 11.4831L10.0405 11.4894L10.3239 11.8038C10.5128 12.0134 10.7367 12.2475 10.9956 12.506C11.2545 12.7645 11.3979 12.8987 11.4259 12.9085C11.4539 12.9197 11.4889 12.9518 11.5308 13.0049C11.5728 13.0566 11.7128 13.1803 11.9506 13.3759C12.1885 13.5715 12.4999 13.7986 12.8847 14.0571C13.2695 14.3157 13.6963 14.5707 14.1651 14.8222C14.6339 15.0738 15.1377 15.3008 15.6764 15.5035C16.2151 15.7061 16.593 15.8388 16.8099 15.9017C17.0268 15.9646 17.3976 16.045 17.9223 16.1428C18.4471 16.2406 18.8424 16.3035 19.1083 16.3314C19.3742 16.3594 19.5561 16.3755 19.654 16.3796L19.801 16.3838L19.7968 16.3524L19.7905 16.321L19.7485 16.0589C19.7205 15.8843 19.7065 15.6397 19.7065 15.3253C19.7065 15.0109 19.731 14.7209 19.78 14.4554C19.829 14.1899 19.9024 13.9209 20.0004 13.6484C20.0983 13.3759 20.1942 13.1572 20.2879 12.9923C20.3831 12.8288 20.5076 12.6423 20.6616 12.4327C20.8155 12.2231 21.0149 12.0065 21.2598 11.7829C21.5047 11.5593 21.7845 11.3601 22.0994 11.1855C22.4142 11.0108 22.7046 10.878 22.9705 10.7872C23.2363 10.6964 23.4603 10.637 23.6422 10.609C23.8241 10.5811 23.915 10.565 23.915 10.5608V10.5608Z" fill="white"/>
</svg>
