<svg width="41" height="40" viewBox="0 0 41 40" fill="none" xmlns="http://www.w3.org/2000/svg">
<g clip-path="url(#clip0)">
<path d="M20.0112 0C11.6597 0 9.21648 0.00923148 8.7426 0.0492346C7.02862 0.190784 5.96085 0.461574 4.80076 1.04008C3.90531 1.48627 3.20064 2.00015 2.50212 2.72329C1.23125 4.04031 0.461965 5.6589 0.185021 7.58828C0.0496256 8.52373 0.00962254 8.71452 0.000391064 13.4903C-0.0026861 15.0842 0.000391064 17.1798 0.000391064 19.9923C0.000391064 28.3376 0.00962254 30.7777 0.0496256 31.2516C0.188098 32.9195 0.449656 33.9688 1.00355 35.1165C2.06209 37.3136 4.08378 38.963 6.4655 39.5784C7.29018 39.7907 8.20102 39.9077 9.37034 39.9631C9.86576 39.9846 14.9154 40 19.9681 40C25.0208 40 30.0735 39.9938 30.5566 39.9692C31.9105 39.9046 32.6983 39.8 33.566 39.5753C35.9632 38.9568 37.9479 37.3321 39.028 35.1042C39.5727 33.9842 39.8465 32.8948 39.9727 31.3132C40.0004 30.9685 40.0127 25.4727 40.0127 19.9862C40.0127 14.4965 40.0004 9.013 39.9727 8.66836C39.8465 7.06208 39.5727 5.982 39.0095 4.84037C38.548 3.90492 38.0402 3.20948 37.2956 2.49558C35.9724 1.23086 34.3538 0.461574 32.4275 0.18463C31.492 0.0492346 31.3074 0.00923148 26.5255 0H20.0112Z" fill="url(#paint0_radial)"/>
<path d="M20.0112 0C11.6597 0 9.21648 0.00923148 8.7426 0.0492346C7.02862 0.190784 5.96085 0.461574 4.80076 1.04008C3.90531 1.48627 3.20064 2.00015 2.50212 2.72329C1.23125 4.04031 0.461965 5.6589 0.185021 7.58828C0.0496256 8.52373 0.00962254 8.71452 0.000391064 13.4903C-0.0026861 15.0842 0.000391064 17.1798 0.000391064 19.9923C0.000391064 28.3376 0.00962254 30.7777 0.0496256 31.2516C0.188098 32.9195 0.449656 33.9688 1.00355 35.1165C2.06209 37.3136 4.08378 38.963 6.4655 39.5784C7.29018 39.7907 8.20102 39.9077 9.37034 39.9631C9.86576 39.9846 14.9154 40 19.9681 40C25.0208 40 30.0735 39.9938 30.5566 39.9692C31.9105 39.9046 32.6983 39.8 33.566 39.5753C35.9632 38.9568 37.9479 37.3321 39.028 35.1042C39.5727 33.9842 39.8465 32.8948 39.9727 31.3132C40.0004 30.9685 40.0127 25.4727 40.0127 19.9862C40.0127 14.4965 40.0004 9.013 39.9727 8.66836C39.8465 7.06208 39.5727 5.982 39.0095 4.84037C38.548 3.90492 38.0402 3.20948 37.2956 2.49558C35.9724 1.23086 34.3538 0.461574 32.4275 0.18463C31.492 0.0492346 31.3074 0.00923148 26.5255 0H20.0112Z" fill="url(#paint1_radial)"/>
<path d="M20.0018 5.23145C15.9892 5.23145 15.4876 5.24991 13.9121 5.32068C12.3397 5.39146 11.2658 5.64071 10.3272 6.00689C9.35484 6.38538 8.53324 6.89003 7.71164 7.70856C6.89003 8.53016 6.38538 9.35484 6.00689 10.3241C5.64071 11.2627 5.39146 12.3366 5.32068 13.909C5.24991 15.4876 5.23145 15.9892 5.23145 20.0018C5.23145 24.0144 5.24991 24.516 5.32068 26.0915C5.39454 27.6639 5.64071 28.7379 6.00689 29.6764C6.38538 30.6488 6.89003 31.4704 7.71164 32.292C8.53324 33.1136 9.35484 33.6182 10.3272 33.9967C11.2658 34.3629 12.3397 34.6122 13.9121 34.6829C15.4876 34.7537 15.9892 34.7722 20.0018 34.7722C24.0144 34.7722 24.516 34.7537 26.0915 34.6829C27.6639 34.6122 28.7379 34.3629 29.6795 33.9967C30.6519 33.6182 31.4735 33.1136 32.2951 32.292C33.1167 31.4704 33.6213 30.6457 33.9998 29.6764C34.3629 28.7379 34.6122 27.6639 34.686 26.0915C34.7537 24.516 34.7722 24.0144 34.7722 20.0018C34.7722 15.9892 34.7537 15.4876 34.6829 13.9121C34.6091 12.3397 34.3598 11.2658 33.9967 10.3272C33.6182 9.35484 33.1136 8.53324 32.292 7.71164C31.4704 6.89003 30.6488 6.38538 29.6764 6.00997C28.7348 5.64378 27.6609 5.39453 26.0884 5.32376C24.5129 5.24991 24.0113 5.23145 19.9987 5.23145H20.0018ZM18.6786 7.89319C19.0725 7.89319 19.5095 7.89319 20.0049 7.89319C23.9498 7.89319 24.4145 7.90857 25.9746 7.97935C27.4147 8.04397 28.1963 8.28706 28.7163 8.48708C29.4056 8.75479 29.898 9.07482 30.4149 9.59178C30.9319 10.1087 31.2519 10.6011 31.5196 11.2904C31.7227 11.8104 31.9627 12.592 32.0274 14.0321C32.0981 15.5892 32.1135 16.0569 32.1135 19.9987C32.1135 23.9406 32.0981 24.4083 32.0274 25.9653C31.9627 27.4055 31.7196 28.1871 31.5196 28.7071C31.2519 29.3964 30.9319 29.8856 30.4149 30.4026C29.898 30.9196 29.4056 31.2396 28.7163 31.5073C28.1963 31.7104 27.4147 31.9504 25.9746 32.015C24.4175 32.0858 23.9498 32.1012 20.0049 32.1012C16.06 32.1012 15.5922 32.0858 14.0352 32.015C12.5951 31.9473 11.8135 31.7073 11.2934 31.5073C10.6042 31.2396 10.1118 30.9196 9.59486 30.4026C9.07789 29.8856 8.75787 29.3933 8.49016 28.704C8.28706 28.184 8.04705 27.4024 7.98243 25.9623C7.91165 24.4052 7.89627 23.9375 7.89627 19.9926C7.89627 16.0477 7.91165 15.583 7.98243 14.026C8.04705 12.5859 8.29014 11.8043 8.49016 11.2842C8.75787 10.5949 9.07789 10.1026 9.59486 9.58563C10.1118 9.06866 10.6042 8.74864 11.2934 8.48093C11.8135 8.27783 12.5951 8.03781 14.0352 7.97012C15.3984 7.90857 15.9246 7.89011 18.6786 7.88703V7.89319ZM27.8886 10.3457C26.91 10.3457 26.1161 11.1396 26.1161 12.1181C26.1161 13.0967 26.91 13.8906 27.8886 13.8906C28.8671 13.8906 29.661 13.0967 29.661 12.1181C29.661 11.1396 28.8671 10.3457 27.8886 10.3457ZM20.0018 12.4166C15.8138 12.4166 12.4166 15.8138 12.4166 20.0018C12.4166 24.1898 15.8138 27.587 20.0018 27.587C24.1898 27.587 27.587 24.1929 27.587 20.0018C27.587 15.8107 24.1929 12.4166 20.0018 12.4166ZM20.0018 15.0784C22.722 15.0784 24.9253 17.2816 24.9253 20.0018C24.9253 22.722 22.722 24.9253 20.0018 24.9253C17.2816 24.9253 15.0784 22.722 15.0784 20.0018C15.0784 17.2816 17.2847 15.0784 20.0018 15.0784Z" fill="white"/>
</g>
<defs>
<radialGradient id="paint0_radial" cx="0" cy="0" r="1" gradientUnits="userSpaceOnUse" gradientTransform="translate(10.6283 43.082) rotate(-90) scale(39.643 36.8808)">
<stop stop-color="#FFDD55"/>
<stop offset="0.1" stop-color="#FFDD55"/>
<stop offset="0.5" stop-color="#FF543E"/>
<stop offset="1" stop-color="#C837AB"/>
</radialGradient>
<radialGradient id="paint1_radial" cx="0" cy="0" r="1" gradientUnits="userSpaceOnUse" gradientTransform="translate(-6.70552 2.87929) rotate(78.6799) scale(17.7201 73.0636)">
<stop stop-color="#3771C8"/>
<stop offset="0.128" stop-color="#3771C8"/>
<stop offset="1" stop-color="#6600FF" stop-opacity="0"/>
</radialGradient>
<clipPath id="clip0">
<rect width="40.0092" height="40" fill="white"/>
</clipPath>
</defs>
</svg>
