<svg width="76" height="76" viewBox="0 0 76 76" fill="none" xmlns="http://www.w3.org/2000/svg">
<rect width="76" height="76" fill="white"/>
<rect width="76" height="76" fill="#F3EEFF"/>
<path d="M29.6492 39.0344C29.49 38.8697 29.2997 38.7383 29.0893 38.6479C28.8788 38.5575 28.6525 38.5099 28.4234 38.5079C28.1944 38.5059 27.9673 38.5495 27.7553 38.6363C27.5433 38.723 27.3507 38.8511 27.1888 39.013C27.0268 39.175 26.8987 39.3676 26.812 39.5796C26.7253 39.7915 26.6816 40.0187 26.6836 40.2477C26.6856 40.4767 26.7332 40.7031 26.8236 40.9135C26.914 41.124 27.0454 41.3143 27.2101 41.4734L27.819 42.0823C27.9807 42.2441 28.0715 42.4634 28.0715 42.6921C28.0715 42.9208 27.9807 43.1401 27.819 43.3018L18.313 52.8113C17.8314 53.2937 17.5035 53.9081 17.3707 54.5767C17.238 55.2454 17.3063 55.9384 17.5671 56.5682C17.8278 57.1981 18.2693 57.7366 18.8359 58.1157C19.4025 58.4948 20.0686 58.6976 20.7503 58.6984C21.204 58.6998 21.6534 58.6111 22.0724 58.4372C22.4914 58.2634 22.8717 58.008 23.1911 57.6859L32.6954 48.1816C32.8571 48.0199 33.0764 47.9291 33.3051 47.9291C33.5338 47.9291 33.7531 48.0199 33.9149 48.1816L34.5238 48.7905C34.6839 48.9508 34.8741 49.0779 35.0833 49.1647C35.2926 49.2515 35.517 49.2962 35.7435 49.2963C35.9701 49.2963 36.1945 49.2518 36.4038 49.1652C36.6132 49.0785 36.8034 48.9515 36.9637 48.7914C37.1239 48.6312 37.2511 48.4411 37.3378 48.2318C37.4246 48.0225 37.4693 47.7982 37.4694 47.5716C37.4695 47.345 37.4249 47.1207 37.3383 46.9113C37.2517 46.702 37.1247 46.5118 36.9645 46.3515L29.6492 39.0344Z" fill="#AD97FF"/>
<path d="M52.549 27.9771H52.7646C53.1891 27.9454 53.6019 27.8227 53.9748 27.6173C54.3478 27.412 54.6721 27.1287 54.9259 26.7869L58.3205 22.2452C58.5947 21.8768 58.728 21.4225 58.6963 20.9645C58.6647 20.5064 58.4702 20.0747 58.148 19.7475L56.2541 17.8605C55.9366 17.5437 55.5179 17.3486 55.0711 17.3092C54.6243 17.2697 54.1779 17.3886 53.8099 17.6449L49.1526 20.8791C48.7958 21.1262 48.4979 21.449 48.28 21.8243C48.0621 22.1996 47.9295 22.6184 47.8917 23.0507C47.8575 23.4505 47.9074 23.853 48.0383 24.2323C48.0903 24.3849 48.0985 24.5491 48.0619 24.7061C48.0253 24.8631 47.9454 25.0067 47.8313 25.1206L34.7065 38.23C34.4642 38.4725 34.3281 38.8014 34.3281 39.1442C34.3281 39.487 34.4642 39.8158 34.7065 40.0584L35.9277 41.2796C36.0478 41.3998 36.1905 41.4952 36.3475 41.5603C36.5045 41.6253 36.6728 41.6588 36.8428 41.6588C37.0127 41.6588 37.181 41.6253 37.338 41.5603C37.495 41.4952 37.6377 41.3998 37.7578 41.2796L50.9534 28.0978C51.0617 27.9882 51.1974 27.9096 51.3463 27.8702C51.4952 27.8307 51.652 27.8319 51.8004 27.8736C52.0442 27.9412 52.2959 27.976 52.549 27.9771V27.9771Z" fill="#AD97FF"/>
<path d="M48.712 43.4371C48.5655 43.4765 48.4111 43.4765 48.2645 43.4372C48.1179 43.3978 47.9843 43.3204 47.8772 43.2129L44.0134 39.3491C43.8483 39.1939 43.6302 39.1074 43.4036 39.1074C43.177 39.1074 42.9589 39.1939 42.7939 39.3491L39.1353 43.0007C38.9736 43.1625 38.8828 43.3818 38.8828 43.6105C38.8828 43.8392 38.9736 44.0585 39.1353 44.2203L42.9991 48.0858C43.1064 48.1931 43.1834 48.3268 43.2225 48.4733C43.2615 48.6199 43.2613 48.7742 43.2216 48.9206C42.872 50.2366 42.8742 51.6213 43.228 52.9361C43.5818 54.2509 44.2747 55.4497 45.2375 56.4125C46.2003 57.3753 47.3991 58.0683 48.7139 58.422C50.0288 58.7758 51.4134 58.778 52.7294 58.4284C52.8759 58.3894 53.0096 58.3126 53.1169 58.2056C53.2243 58.0985 53.3015 57.9651 53.3409 57.8187C53.3802 57.6723 53.3803 57.5181 53.3411 57.3717C53.3019 57.2253 53.2247 57.0917 53.1175 56.9846L50.5301 54.4076C50.3921 54.2677 50.3052 54.0854 50.2834 53.8901L49.9781 51.1458C49.9639 51.0171 49.9787 50.8869 50.0216 50.7647C50.0646 50.6426 50.1344 50.5317 50.226 50.4402C50.3177 50.3488 50.4287 50.2791 50.5509 50.2364C50.6731 50.1937 50.8034 50.1791 50.932 50.1936L53.6746 50.4989C53.8702 50.5198 54.0528 50.6068 54.1921 50.7456L56.7795 53.333C56.8866 53.4398 57.02 53.5165 57.1662 53.5555C57.3124 53.5944 57.4663 53.5943 57.6124 53.5549C57.7586 53.5156 57.8918 53.4385 57.9987 53.3314C58.1056 53.2244 58.1824 53.091 58.2215 52.9449C58.5745 51.6286 58.5747 50.2425 58.2221 48.9261C57.8695 47.6097 57.1766 46.4094 56.2129 45.4457C55.2493 44.4821 54.0489 43.7891 52.7325 43.4365C51.4161 43.0839 50.0301 43.0842 48.7138 43.4371H48.712Z" fill="#AD97FF"/>
<path d="M27.0734 32.7782C27.22 32.7388 27.3744 32.7388 27.521 32.7781C27.6675 32.8175 27.8011 32.8949 27.9083 33.0024L31.7721 36.8662C31.9338 37.0279 32.1531 37.1187 32.3818 37.1187C32.6105 37.1187 32.8298 37.0279 32.9916 36.8662L36.6501 33.2077C36.8118 33.0459 36.9026 32.8266 36.9026 32.5979C36.9026 32.3692 36.8118 32.1499 36.6501 31.9882L32.7863 28.1226C32.6791 28.0153 32.602 27.8816 32.563 27.7351C32.5239 27.5885 32.5242 27.4342 32.5638 27.2878C32.9169 25.9713 32.9172 24.585 32.5645 23.2684C32.2119 21.9519 31.5187 20.7513 30.5549 19.7876C29.591 18.8239 28.3903 18.131 27.0737 17.7786C25.757 17.4262 24.3708 17.4267 23.0544 17.78C22.9082 17.8191 22.7749 17.896 22.6678 18.0029C22.5607 18.1098 22.4836 18.243 22.4443 18.3891C22.405 18.5352 22.4048 18.6891 22.4437 18.8353C22.4827 18.9815 22.5594 19.1149 22.6662 19.2221L25.245 21.8094C25.3844 21.9485 25.4721 22.1311 25.4934 22.3269L25.797 25.0609C25.8112 25.1894 25.7964 25.3195 25.7535 25.4415C25.7107 25.5635 25.641 25.6743 25.5496 25.7657C25.4582 25.8571 25.3474 25.9268 25.2254 25.9696C25.1034 26.0124 24.9733 26.0273 24.8448 26.0131L22.1005 25.7077C21.9049 25.6869 21.7223 25.5999 21.583 25.4611L19.0077 22.8823C18.9005 22.7755 18.7671 22.6988 18.6209 22.6598C18.4747 22.6209 18.3208 22.6211 18.1747 22.6604C18.0286 22.6997 17.8954 22.7768 17.7885 22.8839C17.6816 22.9909 17.6048 23.1243 17.5657 23.2704C17.2127 24.5867 17.2125 25.9728 17.5651 27.2892C17.9176 28.6056 18.6106 29.8059 19.5743 30.7696C20.5379 31.7332 21.7383 32.4262 23.0547 32.7788C24.3711 33.1314 25.7571 33.1312 27.0734 32.7782V32.7782Z" fill="#AD97FF"/>
</svg>
