<svg width="76" height="76" viewBox="0 0 76 76" fill="none" xmlns="http://www.w3.org/2000/svg">
<rect width="76" height="76" fill="white"/>
<rect width="76" height="76" fill="#FFF5D2"/>
<path d="M62.6419 53.1739L57.6397 44.788C57.5761 44.6814 57.5384 44.5614 57.5296 44.4376C57.5209 44.3138 57.5414 44.1896 57.5894 44.0752C57.8063 43.5625 57.9176 43.0113 57.9164 42.4546V21.4898C57.9164 20.3778 57.4747 19.3113 56.6884 18.525C55.902 17.7386 54.8355 17.2969 53.7235 17.2969H22.2784C21.1664 17.2969 20.0999 17.7386 19.3135 18.525C18.5272 19.3113 18.0855 20.3778 18.0855 21.4898V42.4546C18.0848 43.0128 18.1968 43.5654 18.4146 44.0794C18.4623 44.1929 18.4824 44.3161 18.4733 44.4389C18.4641 44.5617 18.4261 44.6806 18.3622 44.7859L13.36 53.1718C13.0275 53.7222 12.8486 54.3517 12.842 54.9948C12.8354 55.6378 13.0012 56.2709 13.3223 56.8281C13.6453 57.4019 14.1165 57.8786 14.6866 58.2083C15.2567 58.5379 15.9049 58.7086 16.5634 58.7023H59.4364C60.0949 58.7086 60.7431 58.5379 61.3132 58.2083C61.8833 57.8786 62.3545 57.4019 62.6775 56.8281C62.9985 56.2713 63.1645 55.6387 63.1582 54.9961C63.152 54.3535 62.9737 53.7243 62.6419 53.1739V53.1739ZM43.2432 54.5114H32.7608C32.3438 54.5114 31.9439 54.3458 31.649 54.0509C31.3541 53.756 31.1884 53.3561 31.1884 52.9391C31.1884 52.5221 31.3541 52.1221 31.649 51.8273C31.9439 51.5324 32.3438 51.3667 32.7608 51.3667H43.2432C43.6602 51.3667 44.0601 51.5324 44.355 51.8273C44.6499 52.1221 44.8155 52.5221 44.8155 52.9391C44.8155 53.3561 44.6499 53.756 44.355 54.0509C44.0601 54.3458 43.6602 54.5114 43.2432 54.5114ZM53.4174 42.1422C53.2209 42.3382 52.9548 42.4483 52.6773 42.4483H23.3267C23.0486 42.4483 22.782 42.3379 22.5854 42.1413C22.3889 41.9447 22.2784 41.6781 22.2784 41.4001V22.5318C22.2784 22.2538 22.3889 21.9871 22.5854 21.7906C22.782 21.594 23.0486 21.4835 23.3267 21.4835H52.6773C52.9554 21.4835 53.222 21.594 53.4186 21.7906C53.6151 21.9871 53.7256 22.2538 53.7256 22.5318V41.4001C53.7267 41.5394 53.7 41.6775 53.647 41.8064C53.5941 41.9352 53.5161 42.0523 53.4174 42.1506V42.1422Z" fill="#FFE661"/>
</svg>
