<svg width="76" height="76" viewBox="0 0 76 76" fill="none" xmlns="http://www.w3.org/2000/svg">
<rect width="76" height="76" fill="white"/>
<rect width="76" height="76" fill="#DBF3FF"/>
<path d="M25.2701 30.9766H17.3687C17.1262 30.9766 16.9297 31.1731 16.9297 31.4155V36.6831C16.9297 36.9256 17.1262 37.1221 17.3687 37.1221H25.2701C25.5125 37.1221 25.709 36.9256 25.709 36.6831V31.4155C25.709 31.1731 25.5125 30.9766 25.2701 30.9766Z" fill="#84D5FF"/>
<path d="M17.3687 47.6562C17.2522 47.6562 17.1406 47.7025 17.0583 47.7848C16.9759 47.8671 16.9297 47.9788 16.9297 48.0952V51.1504C16.9294 51.2876 16.9613 51.4229 17.0228 51.5455L20.1412 57.7841C20.2328 58.0222 20.3945 58.2269 20.6048 58.3713C20.8151 58.5157 21.0642 58.593 21.3194 58.593C21.5745 58.593 21.8236 58.5157 22.0339 58.3713C22.2443 58.2269 22.4059 58.0222 22.4976 57.7841L25.616 51.5455C25.6774 51.4229 25.7093 51.2876 25.709 51.1504V48.0952C25.709 47.9788 25.6628 47.8671 25.5805 47.7848C25.4981 47.7025 25.3865 47.6562 25.2701 47.6562H17.3687Z" fill="#84D5FF"/>
<path d="M25.2701 28.344C25.3865 28.344 25.4981 28.2978 25.5805 28.2155C25.6628 28.1331 25.709 28.0215 25.709 27.9051V26.625C25.709 25.4608 25.2466 24.3443 24.4233 23.5211C23.6001 22.6978 22.4836 22.2354 21.3194 22.2354C20.1551 22.2354 19.0386 22.6978 18.2154 23.5211C17.3922 24.3443 16.9297 25.4608 16.9297 26.625V27.9051C16.9297 28.0215 16.9759 28.1331 17.0583 28.2155C17.1406 28.2978 17.2522 28.344 17.3687 28.344H25.2701Z" fill="#84D5FF"/>
<path d="M58.2752 58.7843C58.4684 58.6581 58.6348 58.4951 58.765 58.3046C58.8952 58.1141 58.9865 57.8998 59.0338 57.6739C59.0811 57.448 59.0834 57.2151 59.0406 56.9883C58.9978 56.7616 58.9107 56.5455 58.7844 56.3524L56.5333 52.9144C56.4926 52.852 56.4683 52.7803 56.4628 52.706C56.4572 52.6317 56.4706 52.5572 56.5017 52.4895C56.693 52.094 56.7799 51.6563 56.7544 51.2177C56.7289 50.7792 56.5918 50.3545 56.356 49.9839L43.5715 29.6333C43.4927 29.5073 43.3833 29.4034 43.2534 29.3312C43.1235 29.259 42.9774 29.221 42.8288 29.2207H32.2936C32.1143 29.2206 31.9392 29.2754 31.792 29.3777C31.6448 29.4801 31.5324 29.625 31.47 29.7931L28.1795 38.6831C28.042 38.9834 27.8264 39.2414 27.5553 39.4301C27.2841 39.6188 26.9673 39.7313 26.6379 39.7559H17.3687C17.2522 39.7559 17.1406 39.8022 17.0583 39.8845C16.9759 39.9668 16.9297 40.0785 16.9297 40.1949V44.5846C16.9297 44.701 16.9759 44.8126 17.0583 44.895C17.1406 44.9773 17.2522 45.0235 17.3687 45.0235H30.5377C31.2257 44.9973 31.892 44.7749 32.4578 44.3827C33.0237 43.9904 33.4657 43.4445 33.7316 42.8094L37.4383 32.9291C37.4669 32.8521 37.5167 32.7847 37.5818 32.7346C37.6469 32.6844 37.7248 32.6536 37.8066 32.6455C37.8884 32.6375 37.9708 32.6526 38.0444 32.689C38.118 32.7255 38.18 32.7819 38.2231 32.8518L50.8285 53.3622C51.0762 53.7623 51.4256 54.0895 51.8412 54.3104C52.2567 54.5313 52.7234 54.6379 53.1937 54.6194C53.27 54.6161 53.3458 54.6327 53.4138 54.6675C53.4818 54.7022 53.5397 54.754 53.5817 54.8178L55.845 58.2768C56.1001 58.6663 56.4993 58.9385 56.955 59.0337C57.4107 59.1288 57.8856 59.0391 58.2752 58.7843V58.7843Z" fill="#84D5FF"/>
<path d="M32.2959 26.586H42.8311C43.064 26.586 43.2873 26.4935 43.4519 26.3289C43.6166 26.1642 43.7091 25.9409 43.7091 25.7081V23.0743C43.7091 21.4444 43.0616 19.8812 41.9091 18.7287C40.7566 17.5762 39.1934 16.9287 37.5635 16.9287C35.9336 16.9287 34.3705 17.5762 33.218 18.7287C32.0654 19.8812 31.418 21.4444 31.418 23.0743V25.7081C31.418 25.9409 31.5105 26.1642 31.6751 26.3289C31.8398 26.4935 32.0631 26.586 32.2959 26.586ZM37.5635 19.5625C37.9108 19.5625 38.2503 19.6655 38.539 19.8584C38.8278 20.0514 39.0528 20.3256 39.1857 20.6464C39.3186 20.9673 39.3534 21.3203 39.2856 21.6609C39.2179 22.0015 39.0507 22.3144 38.8051 22.56C38.5595 22.8055 38.2467 22.9728 37.9061 23.0405C37.5655 23.1083 37.2124 23.0735 36.8916 22.9406C36.5707 22.8077 36.2965 22.5826 36.1036 22.2939C35.9106 22.0051 35.8076 21.6657 35.8076 21.3184C35.8076 20.8527 35.9926 20.4061 36.3219 20.0768C36.6512 19.7475 37.0978 19.5625 37.5635 19.5625V19.5625Z" fill="#84D5FF"/>
</svg>
