<svg width="131" height="39" viewBox="0 0 131 39" fill="none" xmlns="http://www.w3.org/2000/svg">
<path d="M57.3753 22.8786V32.1452H60.4957V22.8786L68.2179 9.35693H64.7508L59.7077 18.4659C59.4556 18.8757 59.2349 19.317 58.9513 19.9789C58.6991 19.443 58.51 19.0018 58.1948 18.4659L53.1518 9.35693H49.5586L57.3753 22.8786Z" fill="#14142B"/>
<path d="M66.6609 24.423C66.6609 29.0563 69.8128 32.5234 74.5406 32.5234C79.2685 32.5234 82.4204 29.0563 82.4204 24.423C82.4204 19.7897 79.2685 16.3226 74.5406 16.3226C69.8128 16.3226 66.6609 19.7897 66.6609 24.423ZM69.6552 24.423C69.6552 21.2711 71.5778 18.9702 74.5406 18.9702C77.5034 18.9702 79.4261 21.2711 79.4261 24.423C79.4261 27.5749 77.5034 29.8758 74.5406 29.8758C71.5778 29.8758 69.6552 27.5749 69.6552 24.423Z" fill="#14142B"/>
<path d="M91.2278 32.5234C93.4971 32.5234 95.5774 31.4833 96.4599 29.8758L96.649 32.1452H99.3912V16.7324H96.4599V24.8643C96.4599 28.0792 95.0416 29.9074 92.2679 29.9074C90.0931 29.9074 88.5802 28.8042 88.5802 25.3371V16.7324H85.6174V26.3142C85.6174 30.0334 87.5716 32.5234 91.2278 32.5234Z" fill="#14142B"/>
<path d="M118.728 20.7668L110.785 32.1452H114.567L120.651 23.1938C121.029 23.8557 122.037 25.4632 123.141 27.1337L126.608 32.1452H130.516L122.542 20.7353L130.421 9.35693H126.671L120.682 18.4975C120.335 17.8986 119.106 15.9129 118.098 14.4315L114.599 9.35693H110.722L118.728 20.7668Z" fill="#14142B"/>
<path d="M39.5304 19.5279C39.5304 30.0945 30.9646 38.6603 20.398 38.6603C9.8315 38.6603 1.26562 30.0945 1.26562 19.5279C1.26562 8.96138 9.8315 0.395508 20.398 0.395508C30.9646 0.395508 39.5304 8.96138 39.5304 19.5279ZM4.33023 19.5279C4.33023 28.4019 11.524 35.5957 20.398 35.5957C29.272 35.5957 36.4658 28.4019 36.4658 19.5279C36.4658 10.6539 29.272 3.46011 20.398 3.46011C11.524 3.46011 4.33023 10.6539 4.33023 19.5279Z" fill="#14142B"/>
<path fill-rule="evenodd" clip-rule="evenodd" d="M28.4297 18.3979C29.2026 18.3979 29.8291 19.0245 29.8291 19.7974C29.8291 22.2987 28.8355 24.6976 27.0668 26.4663C25.2981 28.2349 22.8993 29.2286 20.398 29.2286C17.8967 29.2286 15.4978 28.2349 13.7291 26.4663C11.9604 24.6976 10.9668 22.2987 10.9668 19.7974C10.9668 19.0245 11.5934 18.398 12.3663 18.398C13.1392 18.398 13.7657 19.0245 13.7657 19.7974C13.7657 21.5564 14.4645 23.2433 15.7083 24.4871C16.952 25.7309 18.639 26.4296 20.398 26.4296C22.1569 26.4296 23.8439 25.7309 25.0877 24.4871C26.3314 23.2433 27.0302 21.5564 27.0302 19.7974C27.0302 19.0245 27.6567 18.3979 28.4297 18.3979Z" fill="#14142B"/>
</svg>
