<svg width="30" height="26" viewBox="0 0 30 26" fill="none" xmlns="http://www.w3.org/2000/svg">
<path d="M4.32747 18.7162L5.98371 18.2546L4.76351 17.0432C2.49398 14.7902 1.80935 11.9233 1.97021 9.08832C2.11509 6.53473 2.94701 4.06872 3.86092 2.2682C4.59404 3.40359 5.74989 4.56191 6.89868 5.54515C8.22623 6.68139 9.65495 7.67674 10.669 8.2354L12.1516 9.05212V7.35952C12.1516 6.02306 12.9027 4.56641 14.1977 3.41306C15.4835 2.26791 17.1994 1.52214 18.9347 1.52214C20.1769 1.52214 21.438 1.9361 22.5087 2.48127C23.5886 3.03113 24.3747 3.66262 24.6722 3.98959L24.9071 4.24771L25.2515 4.30365L28.4117 4.81689L26.12 8.79971L25.9887 9.02782L25.9867 9.29099C25.9212 18.0788 20.1872 24.8737 12.6551 24.9983C9.8062 25.0455 7.26621 24.0946 5.24663 22.8164C3.58427 21.7643 2.31626 20.5167 1.54851 19.4907L4.32747 18.7162Z" stroke="#14142B" stroke-width="2"/>
</svg>
