<svg width="256" height="256" viewBox="0 0 256 256" fill="none" xmlns="http://www.w3.org/2000/svg">
<circle cx="128" cy="128" r="120" fill="white"/>
<path d="M256 128C256 198.692 198.692 256 128 256C57.3076 256 0 198.692 0 128C0 57.3076 57.3076 0 128 0C198.692 0 256 57.3076 256 128ZM20.5029 128C20.5029 187.369 68.631 235.497 128 235.497C187.369 235.497 235.497 187.369 235.497 128C235.497 68.631 187.369 20.5029 128 20.5029C68.631 20.5029 20.5029 68.631 20.5029 128Z" fill="#14142B"/>
<path d="M82.8272 129.804C82.8272 124.858 78.8172 120.848 73.8706 120.848C68.9241 120.848 64.9141 124.858 64.9141 129.804C64.9141 146.538 71.5617 162.587 83.3946 174.42C95.2275 186.253 111.276 192.901 128.011 192.901C144.745 192.901 160.794 186.253 172.627 174.42C184.459 162.587 191.107 146.538 191.107 129.804C191.107 124.858 187.097 120.848 182.151 120.848C177.204 120.848 173.194 124.858 173.194 129.804C173.194 141.788 168.434 153.28 159.96 161.754C151.487 170.227 139.994 174.988 128.011 174.988C116.027 174.988 104.535 170.227 96.0611 161.754C87.5876 153.28 82.8272 141.788 82.8272 129.804Z" fill="#14142B"/>
</svg>
