<svg width="26" height="26" viewBox="0 0 26 26" fill="none" xmlns="http://www.w3.org/2000/svg">
<path d="M13 1C6.37273 1 1 6.37273 1 13C1 15.2211 1.606 17.3004 2.65818 19.0845L1 25L7.14945 23.4765C8.88073 24.4453 10.8749 25 13 25C19.6273 25 25 19.6273 25 13C25 6.37273 19.6273 1 13 1Z" stroke="#14142B" stroke-width="2" stroke-miterlimit="10" stroke-linejoin="round"/>
<path d="M15.1745 14.8396C15.4488 14.5797 15.8145 14.4393 16.1916 14.4491C16.5688 14.4589 16.9267 14.6181 17.1872 14.8919L18.4972 16.4316C18.7262 16.7323 18.8271 17.1117 18.7777 17.4869C18.7284 17.862 18.5328 18.2023 18.2339 18.4331L17.2994 19.2346C16.9346 19.5703 16.4675 19.7726 15.9738 19.8085C15.48 19.8444 14.9887 19.7119 14.5794 19.4325C10.8724 17.7136 7.80687 14.148 6.54431 9.98941C6.3332 9.54051 6.27941 9.03324 6.39166 8.54984C6.5039 8.06643 6.77559 7.63522 7.1627 7.3261L8.09908 6.52381C8.37351 6.26445 8.73909 6.12456 9.11598 6.13468C9.49288 6.14481 9.85047 6.30413 10.1107 6.57785L11.4216 8.11762C11.6502 8.41837 11.751 8.79767 11.7018 9.17269C11.6527 9.54771 11.4576 9.88797 11.1592 10.1192L10.5913 10.6066C11.7574 12.3204 13.1046 13.9028 14.6095 15.3263L15.1745 14.8396Z" stroke="#14142B" stroke-width="2" stroke-miterlimit="10" stroke-linejoin="round"/>
</svg>
